<?xml version="1.0" encoding="iso-8859-1"?>
<!-- Generator: Adobe Illustrator 19.0.0, SVG Export Plug-In . SVG Version: 6.00 Build 0)  -->
<svg version="1.1" id="Layer_1" xmlns="http://www.w3.org/2000/svg" xmlns:xlink="http://www.w3.org/1999/xlink" x="0px" y="0px"
	 viewBox="0 0 512 512" style="enable-background:new 0 0 512 512;" xml:space="preserve">
<path style="fill:#F53635;" d="M372.832,0H57.642L35.137,255.998L57.642,512h315.189c18.567,0,33.758-15.191,33.758-33.758V33.758
	C406.59,15.191,391.399,0,372.832,0z"/>
<polygon style="fill:#FFD691;" points="476.863,81.807 499.369,135.944 476.863,158.45 454.358,135.944 "/>
<path style="fill:#F53635;" d="M499.369,472.615v22.505c0,9.284-7.596,16.879-16.879,16.879h-11.253
	c-9.284,0-16.879-7.596-16.879-16.879v-22.505l22.505-22.505L499.369,472.615z"/>
<rect x="454.352" y="135.944" style="fill:#FAB43E;" width="45.011" height="336.671"/>
<rect x="136.406" y="78.769" style="fill:#FDF3C2;" width="191.409" height="101.275"/>
<rect x="12.631" style="fill:#C40200;" width="45.011" height="512"/>
<g>
	<path style="fill:#F53635;" d="M294.066,120.963h-123.9c-4.661,0-8.44-3.778-8.44-8.44s3.779-8.44,8.44-8.44h123.898
		c4.661,0,8.44,3.778,8.44,8.44S298.727,120.963,294.066,120.963z"/>
	<path style="fill:#F53635;" d="M294.066,154.721h-123.9c-4.661,0-8.44-3.778-8.44-8.44s3.779-8.44,8.44-8.44h123.898
		c4.661,0,8.44,3.778,8.44,8.44C302.504,150.943,298.727,154.721,294.066,154.721z"/>
</g>
<g>
</g>
<g>
</g>
<g>
</g>
<g>
</g>
<g>
</g>
<g>
</g>
<g>
</g>
<g>
</g>
<g>
</g>
<g>
</g>
<g>
</g>
<g>
</g>
<g>
</g>
<g>
</g>
<g>
</g>
</svg>
